HIERARCHY
ROOT Hips
{
	OFFSET 0.00000 0.00000 0.00000
	CHANNELS 6 Xposition Yposition Zposition Zrotation Yrotation Xrotation 
	JOINT LHipJoint
	{
		OFFSET 0 0 0
		CHANNELS 3 Zrotation Yrotation Xrotation
		JOINT LeftUpLeg
		{
			OFFSET 1.81638 -1.86202 0.89635
			CHANNELS 3 Zrotation Yrotation Xrotation
			JOINT LeftLeg
			{
				OFFSET 2.63464 -7.23861 0.00000
				CHANNELS 3 Zrotation Yrotation Xrotation
				JOINT LeftFoot
				{
					OFFSET 2.45871 -6.75336 0.00000
					CHANNELS 3 Zrotation Yrotation Xrotation
					JOINT LeftToeBase
					{
						OFFSET 0.34235 -0.94059 2.20020
						CHANNELS 3 Zrotation Yrotation Xrotation
						End Site
						{
							OFFSET 0.00000 -0.00000 1.18611
						}
					}
				}
			}
		}
	}
	JOINT RHipJoint
	{
		OFFSET 0 0 0
		CHANNELS 3 Zrotation Yrotation Xrotation
		JOINT RightUpLeg
		{
			OFFSET -1.84405 -1.86203 0.89635
			CHANNELS 3 Zrotation Yrotation Xrotation
			JOINT RightLeg
			{
				OFFSET -2.71067 -7.44751 0.00000
				CHANNELS 3 Zrotation Yrotation Xrotation
				JOINT RightFoot
				{
					OFFSET -2.47159 -6.79060 0.00000
					CHANNELS 3 Zrotation Yrotation Xrotation
					JOINT RightToeBase
					{
						OFFSET -0.26223 -0.72048 2.36007
						CHANNELS 3 Zrotation Yrotation Xrotation
						End Site
						{
							OFFSET -0.00000 -0.00000 1.23343
						}
					}
				}
			}
		}
	}
	JOINT LowerBack
	{
		OFFSET 0 0 0
		CHANNELS 3 Zrotation Yrotation Xrotation
		JOINT Spine
		{
			OFFSET 0.02089 1.99248 -0.22512
			CHANNELS 3 Zrotation Yrotation Xrotation
			JOINT Spine1
			{
				OFFSET 0.01476 2.01356 -0.03079
				CHANNELS 3 Zrotation Yrotation Xrotation
				JOINT Neck
				{
					OFFSET 0 0 0
					CHANNELS 3 Zrotation Yrotation Xrotation
					JOINT Neck1
					{
						OFFSET 0.04846 1.65098 0.06663
						CHANNELS 3 Zrotation Yrotation Xrotation
						JOINT Head
						{
							OFFSET -0.06061 1.60634 -0.07565
							CHANNELS 3 Zrotation Yrotation Xrotation
							End Site
							{
								OFFSET -0.02954 1.73562 -0.03642
							}
						}
					}
				}
				JOINT LeftShoulder
				{
					OFFSET 0 0 0
					CHANNELS 3 Zrotation Yrotation Xrotation
					JOINT LeftArm
					{
						OFFSET 3.45234 1.47051 -0.06993
						CHANNELS 3 Zrotation Yrotation Xrotation
						JOINT LeftForeArm
						{
							OFFSET 5.49313 -0.00000 0.00000
							CHANNELS 3 Zrotation Yrotation Xrotation
							JOINT LeftHand
							{
								OFFSET 3.29037 -0.00000 0.00000
								CHANNELS 3 Zrotation Yrotation Xrotation
								JOINT LeftFingerBase
								{
									OFFSET 0 0 0
									CHANNELS 3 Zrotation Yrotation Xrotation
									JOINT LeftHandIndex1
									{
										OFFSET 0.72966 -0.00000 0.00000
										CHANNELS 3 Zrotation Yrotation Xrotation
										End Site
										{
											OFFSET 0.58827 -0.00000 0.00000
										}
									}
								}
								JOINT LThumb
								{
									OFFSET 0 0 0
									CHANNELS 3 Zrotation Yrotation Xrotation
									End Site
									{
										OFFSET 0.59725 -0.00000 0.59725
									}
								}
							}
						}
					}
				}
				JOINT RightShoulder
				{
					OFFSET 0 0 0
					CHANNELS 3 Zrotation Yrotation Xrotation
					JOINT RightArm
					{
						OFFSET -3.41935 1.44327 0.20453
						CHANNELS 3 Zrotation Yrotation Xrotation
						JOINT RightForeArm
						{
							OFFSET -5.23684 -0.00000 0.00000
							CHANNELS 3 Zrotation Yrotation Xrotation
							JOINT RightHand
							{
								OFFSET -3.38251 -0.00000 0.00000
								CHANNELS 3 Zrotation Yrotation Xrotation
								JOINT RightFingerBase
								{
									OFFSET 0 0 0
									CHANNELS 3 Zrotation Yrotation Xrotation
									JOINT RightHandIndex1
									{
										OFFSET -0.69145 -0.00000 0.00000
										CHANNELS 3 Zrotation Yrotation Xrotation
										End Site
										{
											OFFSET -0.55747 -0.00000 0.00000
										}
									}
								}
								JOINT RThumb
								{
									OFFSET 0 0 0
									CHANNELS 3 Zrotation Yrotation Xrotation
									End Site
									{
										OFFSET -0.56598 -0.00000 0.56598
									}
								}
							}
						}
					}
				}
			}
		}
	}
}
MOTION
Frames: 10
Frame Time: 0.0363636
0.00 0.00 0.00 0 0 0 0 0 0 -21 0 0 0 0 0 0 0 0 0 0 0 0 0 0 21 0 0 0 0 0 0 0 0 0 0 0 0 0 0 0 0 0 0 0 0 0 0 -16 0 0 21 0 0 11 0 0 0 -8 0 0 0 0 0 0 0 0 0 0 0 0 0 0 0 0 0 0 0 0 8 0 0 0 0 0 0 0 0 0 0 0 0 0 0 0 0 0
0.00 0.00 0.00 -36.2669 73.9121 -30.1631 0.0000 0.0000 0.0000 -6.9711 -6.0356 -26.3771 6.2214 14.6395 45.8641 1.7770 -18.8224 -25.5742 0.0440 -1.3533 -3.7215 0.0000 0.0000 0.0000 28.4878 9.1838 6.5480 -0.6439 -5.1333 14.2892 -1.4363 1.5369 -22.2160 -0.6784 5.2664 -14.6701 3.6086 0.3072 16.2260 2.4027 1.3676 7.4565 0.2502 0.8776 -1.1471 3.3815 2.4126 -1.2183 -4.2528 3.1055 -9.1553 -2.0148 1.6184 -2.5818 0.0000 -0.0000 0.0000 -74.9073 25.2162 48.9611 42.7941 -49.6409 -20.5437 -0.0000 0.0000 -0.1208 3.8600 8.1800 0.5500 -7.1250 0.0000 -0.0000 -19.4370 37.4897 3.7666 0.0000 -0.0000 0.0000 71.2326 -8.6755 46.0116 -39.3756 47.6956 -17.9761 0.0000 -0.0000 -2.2294 -12.7608 -17.3456 3.8628 7.1250 -0.0000 -0.0000 14.4707 -47.2044 -0.8033
0.00 0.00 0.00 -30.1404 68.3404 -22.9603 0.0000 0.0000 0.0000 -7.8186 0.0229 -20.9630 5.2759 13.6879 42.0014 2.4824 -18.8359 -29.4417 0.0020 -0.2923 -0.8032 0.0000 0.0000 0.0000 25.9181 5.8631 -0.6538 -2.3660 -9.5901 27.6594 -0.4189 13.5741 -14.0152 -0.5248 4.6425 -12.8918 -1.7112 2.3248 15.9666 -1.8371 2.9667 5.8174 -1.4988 1.5731 -2.7404 1.7438 2.9974 -0.7387 2.6154 4.4823 -10.0623 0.4293 2.1617 -3.1141 0.0000 0.0000 0.0000 -70.3475 23.7143 40.5319 34.1520 -44.1970 -14.2189 -0.0000 0.0000 -0.9103 -7.5988 14.9673 -1.9733 -7.1250 0.0000 -0.0000 -31.1690 42.6034 2.0652 0.0000 0.0000 0.0000 74.2214 -15.0108 51.3175 -36.6624 45.9633 -15.9969 0.0000 -0.0000 -2.1373 -6.6655 -17.2304 1.9826 7.1250 -0.0000 -0.0000 19.9594 -46.3036 -0.6685
0.00 0.00 0.00 -27.7172 67.6892 -21.2845 0.0000 0.0000 0.0000 -9.3715 1.1816 -17.1667 4.7469 13.0929 39.7173 2.7185 -18.3441 -30.5581 0.0003 -0.1197 -0.3287 0.0000 0.0000 0.0000 23.8955 6.7831 -7.4142 -5.3376 -13.7542 42.2616 0.4170 18.3455 -8.7091 -0.3217 3.6459 -10.0827 -3.6981 2.3473 16.6812 -3.0300 2.6139 5.6092 -1.6141 1.4042 -3.3623 1.2109 3.4871 -0.6264 3.9662 5.2806 -10.2170 0.9332 2.5377 -3.2591 -0.0000 -0.0000 0.0000 -69.1796 19.4571 36.4827 34.3874 -44.3697 -14.3833 -0.0000 -0.0000 0.7449 -4.1550 15.4100 -1.1059 -7.1250 0.0000 -0.0000 -28.5444 43.3722 1.2573 -0.0000 -0.0000 0.0000 74.6186 -16.8432 52.4688 -35.8899 45.4372 -15.4440 0.0000 -0.0000 -2.6749 -5.2807 -17.2671 1.5715 7.1250 -0.0000 -0.0000 21.2085 -46.1639 -0.6377
0.00 0.00 0.00 -27.6735 73.9411 -19.1113 0.0000 0.0000 0.0000 -14.0402 -2.5713 -3.1446 2.0425 8.9541 25.6519 2.1430 -18.1126 -27.4470 0.0096 0.6319 1.7364 0.0000 0.0000 0.0000 22.9645 12.3590 -26.7199 -4.8802 -13.2476 40.3025 0.6024 22.0171 -10.5096 -0.3014 3.5297 -9.7571 -6.6556 -0.2102 17.5848 -2.1242 -1.4149 3.8571 1.8072 -0.5252 -5.5829 2.5807 3.0913 -0.3340 4.0669 4.7700 -9.8827 0.7423 2.2277 -3.1554 -0.0000 -0.0000 0.0000 -62.7018 13.6271 40.3772 51.6283 -53.6315 -27.4799 -0.0000 0.0000 -4.0294 9.9406 11.6085 2.0198 -7.1250 0.0000 -0.0000 -15.2518 41.2657 1.4424 -0.0000 -0.0000 0.0000 78.3109 -19.9953 35.2291 -23.2991 34.4143 -7.3066 0.0000 0.0000 4.2500 -5.7862 -16.3506 1.6340 7.1250 -0.0000 -0.0000 20.4009 -45.3683 -0.1936
0.00 0.00 0.00 -36.6286 79.6295 -27.6372 0.0000 0.0000 0.0000 -12.0558 2.3988 -2.7875 3.2278 11.0549 32.4654 -1.2685 -29.6930 -13.2719 0.0001 0.0783 0.2152 0.0000 0.0000 0.0000 24.6605 16.9631 -19.9590 -3.1318 -10.9054 31.9614 -0.5666 13.3405 -15.2820 -0.0398 -1.2870 3.5389 -2.7380 -1.3128 14.7845 1.8591 -1.9521 2.2027 3.8963 -0.8435 -5.7871 6.0781 1.8089 -0.2945 -2.7489 2.4741 -8.8829 -2.0034 1.1661 -2.6826 -0.0000 0.0000 0.0000 -68.4280 19.3614 41.8216 49.4092 -52.7544 -25.7031 -0.0000 0.0000 -3.3862 6.8290 10.0142 1.1930 -7.1250 0.0000 -0.0000 -17.4705 39.4572 2.4747 -0.0000 0.0000 0.0000 77.5631 -21.8921 24.0244 -19.8111 30.4140 -5.4354 0.0000 0.0000 8.0837 -3.9352 -17.4448 1.1814 7.1250 -0.0000 -0.0000 22.4743 -46.1603 -0.6776
0.00 0.00 0.00 -51.0596 81.1520 -44.0653 0.0000 0.0000 0.0000 -8.3142 2.1075 -7.4878 6.3687 14.7764 46.4442 -3.4924 -32.8862 0.7066 0.1059 -2.0979 -5.7763 0.0000 0.0000 0.0000 27.0285 17.4473 -15.3623 -3.5436 -11.5270 34.0786 -1.1257 9.6473 -19.1289 -0.0686 -1.6896 4.6486 0.4614 -1.1815 15.7300 3.0737 -1.1208 2.9912 3.2179 -0.4678 -5.5777 7.3112 0.7213 -0.8027 -5.0088 0.8460 -9.0694 -2.9672 0.3771 -2.7468 0.0000 -0.0000 0.0000 -69.2546 19.6456 43.5159 47.2711 -51.8338 -24.0114 -0.0000 0.0000 -3.2770 5.6930 10.0897 1.0006 -7.1250 0.0000 -0.0000 -18.4411 39.4380 2.6325 0.0000 -0.0000 0.0000 78.2032 -21.0894 22.3945 -19.5183 30.0576 -5.2880 0.0000 0.0000 8.9621 -4.3683 -17.3449 1.3046 7.1250 -0.0000 -0.0000 22.0495 -46.1221 -0.6417
0.00 0.00 0.00 -70.8937 80.1882 -66.3874 0.0000 0.0000 0.0000 -2.6331 -0.4422 -14.0299 11.1882 18.0260 63.3912 -3.5764 -32.7383 2.2623 0.4843 -4.4625 -12.3815 0.0000 0.0000 0.0000 31.3448 14.5508 -10.2034 -3.6701 -11.7079 34.7064 -1.6411 8.5250 -22.9451 -0.0055 -0.4805 1.3203 5.4602 -1.0670 17.3121 4.7958 0.1863 4.3414 1.9598 0.1921 -5.0545 7.9708 -0.2895 -0.1045 -6.9866 -0.6415 -11.3196 -3.4286 -0.2866 -3.3846 0.0000 -0.0000 0.0000 -69.9834 20.7804 45.6546 45.6990 -51.1064 -22.7815 -0.0000 0.0000 -3.1006 5.7141 10.2129 1.0164 -7.1250 0.0000 -0.0000 -18.4577 39.5569 2.5786 0.0000 -0.0000 0.0000 77.4234 -18.5674 24.2261 -19.8859 30.5047 -5.4733 0.0000 0.0000 9.2788 -3.2346 -17.1576 0.9551 7.1250 -0.0000 -0.0000 22.9718 -45.8086 -0.4841
0.00 0.00 0.00 -62.6168 81.9581 -56.6966 0.0000 0.0000 0.0000 -3.0464 -3.7658 -36.1211 11.1237 17.9951 63.1828 -0.6529 -26.2316 -14.1467 0.4873 -4.4760 -12.4198 0.0000 0.0000 0.0000 30.3810 11.8850 0.1096 -2.1780 -9.2274 26.5094 -1.7842 8.3196 -23.9397 -0.0863 1.8943 -5.2136 6.4444 1.4190 18.0015 3.7957 3.5898 4.3689 -0.3999 1.8275 -5.2342 8.1381 -0.8816 0.0403 -8.1474 -1.5432 -12.8186 -3.8069 -0.6594 -3.9306 0.0000 0.0000 0.0000 -69.5606 27.6950 46.2327 35.7403 -45.3335 -15.3375 -0.0000 0.0000 -0.3951 -0.9194 7.3955 -0.1184 -7.1250 0.0000 -0.0000 -23.0560 36.4285 5.2071 0.0000 0.0000 0.0000 78.2814 -11.6281 28.3535 -24.7022 35.8980 -8.1146 0.0000 0.0000 3.8763 -17.6841 -18.0738 5.6491 7.1250 -0.0000 -0.0000 10.1081 -48.6231 -0.9119
0.00 0.00 0.00 -50.8384 80.6628 -46.3901 0.0000 0.0000 0.0000 -8.3997 -6.7506 -29.3957 5.7276 14.1591 43.8785 0.8512 -14.6927 -18.1477 0.1006 -2.0452 -5.6306 0.0000 0.0000 0.0000 25.8676 7.9670 -5.2976 -9.0743 -16.8553 56.3467 0.4352 14.5189 -4.0142 -0.3251 3.6648 -10.1355 0.3930 1.9040 17.5794 -1.6321 2.7008 4.4066 -2.5423 1.4162 -5.0139 4.9646 -0.2954 2.0107 1.6965 0.3651 -12.9689 -0.3293 -0.0388 -4.6626 0.0000 -0.0000 0.0000 -65.0548 19.2379 47.2430 30.1172 -40.9936 -11.4864 -0.0000 -0.0000 6.4736 -3.2273 1.7851 -0.1006 -7.1250 0.0000 -0.0000 -23.3545 31.1358 8.5580 0.0000 -0.0000 0.0000 82.2885 -14.6259 37.3666 -28.4361 39.5146 -10.4000 0.0000 -0.0000 -1.6382 -12.9619 -17.1415 3.8809 7.1250 -0.0000 -0.0000 14.2167 -47.0302 -0.7264
